<?xml version="1.0" standalone="no"?>
<!DOCTYPE svg PUBLIC "-//W3C//DTD SVG 20010904//EN"
 "http://www.w3.org/TR/2001/REC-SVG-20010904/DTD/svg10.dtd">
<svg version="1.0" xmlns="http://www.w3.org/2000/svg"
 width="16.000000pt" height="16.000000pt" viewBox="0 0 16.000000 16.000000"
 preserveAspectRatio="xMidYMid meet">
<metadata>
Created by potrace 1.11, written by Peter Selinger 2001-2013
</metadata>
<g transform="translate(0.000000,16.000000) scale(0.008000,-0.008000)"
fill="#000000" stroke="none">
<path d="M835 1869 c-56 -7 -166 -48 -235 -87 -138 -79 -222 -166 -264 -272
-15 -40 -42 -95 -58 -121 -24 -39 -27 -52 -18 -69 6 -11 15 -20 20 -20 5 0 7
-7 4 -15 -11 -27 5 -63 30 -69 20 -5 26 -16 40 -78 30 -141 31 -150 2 -193
-14 -21 -26 -45 -27 -54 0 -9 -2 -25 -4 -36 -16 -86 80 -195 172 -195 24 0 32
-8 57 -56 38 -73 102 -142 165 -179 28 -16 51 -32 50 -35 0 -3 -14 -14 -31
-25 -39 -25 -82 -109 -130 -250 l-36 -110 415 -3 c229 -1 418 0 420 2 7 7 -39
171 -68 242 -30 73 -67 117 -107 129 -21 6 -18 10 35 41 71 42 151 126 182
192 22 47 26 50 67 55 135 15 206 177 126 287 -17 22 -18 34 -10 105 5 45 17
90 26 104 39 55 42 65 36 146 -7 105 -37 217 -77 283 -51 85 -178 181 -241
182 -10 0 -39 15 -65 33 -82 60 -120 69 -281 71 -80 1 -167 -1 -195 -5z"/>
</g>
</svg>
